HIERARCHY
ROOT hip
{
  OFFSET 0 0 0
  CHANNELS 6 Xposition Yposition Zposition Zrotation Yrotation Xrotation
  JOINT abdomen
  {
    OFFSET 0 20.6881 -0.73152
    CHANNELS 3 Zrotation Xrotation Yrotation
    JOINT chest
    {
      OFFSET 0 11.7043 -0.48768
      CHANNELS 3 Zrotation Xrotation Yrotation
      JOINT neck
      {
        OFFSET 0 22.1894 -2.19456
        CHANNELS 3 Zrotation Xrotation Yrotation
        JOINT head
        {
          OFFSET -0.24384 7.07133 1.2192
          CHANNELS 3 Zrotation Xrotation Yrotation
          JOINT leftEye
          {
            OFFSET 4.14528 8.04674 8.04672
            CHANNELS 3 Zrotation Xrotation Yrotation
            End Site
            {
              OFFSET 1 0 0
            }
          }
          JOINT rightEye
          {
            OFFSET -3.6576 8.04674 8.04672
            CHANNELS 3 Zrotation Xrotation Yrotation
            End Site
            {
              OFFSET 1 0 0
            }
          }
        }
      }
      JOINT rCollar
      {
        OFFSET -2.68224 19.2634 -4.8768
        CHANNELS 3 Zrotation Xrotation Yrotation
        JOINT rShldr
        {
          OFFSET -8.77824 -1.95073 1.46304
          CHANNELS 3 Zrotation Xrotation Yrotation
          JOINT rForeArm
          {
            OFFSET -28.1742 -1.7115 0.48768
            CHANNELS 3 Zrotation Xrotation Yrotation
            JOINT rHand
            {
              OFFSET -22.5879 0.773209 7.07136
              CHANNELS 3 Zrotation Xrotation Yrotation
              JOINT rThumb1
              {
                OFFSET -1.2192 -0.487915 3.41376
                CHANNELS 3 Zrotation Xrotation Yrotation
                JOINT rThumb2
                {
                  OFFSET -3.37035 -0.52449 3.41376
                  CHANNELS 3 Zrotation Xrotation Yrotation
                  End Site
                  {
                    OFFSET -1.78271 -1.18214 1.43049
                  }
                }
              }
              JOINT rIndex1
              {
                OFFSET -7.75947 0.938293 5.60832
                CHANNELS 3 Zrotation Xrotation Yrotation
                JOINT rIndex2
                {
                  OFFSET -2.54057 -0.884171 1.56538
                  CHANNELS 3 Zrotation Xrotation Yrotation
                  End Site
                  {
                    OFFSET -1.62519 -0.234802 1.16502
                  }
                }
              }
              JOINT rMid1
              {
                OFFSET -8.24714 1.18213 3.41376
                CHANNELS 3 Zrotation Xrotation Yrotation
                JOINT rMid2
                {
                  OFFSET -3.10165 -0.590103 1.0647
                  CHANNELS 3 Zrotation Xrotation Yrotation
                  End Site
                  {
                    OFFSET -2.48547 -0.328903 0.83742
                  }
                }
              }
              JOINT rRing1
              {
                OFFSET -8.82822 0.546677 1.51678
                CHANNELS 3 Zrotation Xrotation Yrotation
                JOINT rRing2
                {
                  OFFSET -2.60934 -0.819778 -0.0198488
                  CHANNELS 3 Zrotation Xrotation Yrotation
                  End Site
                  {
                    OFFSET -2.33842 -0.294052 0.168128
                  }
                }
              }
              JOINT rPinky1
              {
                OFFSET -8.27202 -0.0477905 -0.4584
                CHANNELS 3 Zrotation Xrotation Yrotation
                JOINT rPinky2
                {
                  OFFSET -1.82734 -0.647385 -0.700984
                  CHANNELS 3 Zrotation Xrotation Yrotation
                  End Site
                  {
                    OFFSET -1.69225 -0.51767 -0.607171
                  }
                }
              }
            }
          }
        }
      }
      JOINT lCollar
      {
        OFFSET 2.68224 19.2634 -4.8768
        CHANNELS 3 Zrotation Xrotation Yrotation
        JOINT lShldr
        {
          OFFSET 8.77824 -1.95073 1.46304
          CHANNELS 3 Zrotation Xrotation Yrotation
          JOINT lForeArm
          {
            OFFSET 28.1742 -1.7115 0.48768
            CHANNELS 3 Zrotation Xrotation Yrotation
            JOINT lHand
            {
              OFFSET 22.5879 0.773209 7.07136
              CHANNELS 3 Zrotation Xrotation Yrotation
              JOINT lThumb1
              {
                OFFSET 1.2192 -0.487915 3.41376
                CHANNELS 3 Zrotation Xrotation Yrotation
                JOINT lThumb2
                {
                  OFFSET 3.37035 -0.52449 3.41376
                  CHANNELS 3 Zrotation Xrotation Yrotation
                  End Site
                  {
                    OFFSET 1.78271 -1.18214 1.43049
                  }
                }
              }
              JOINT lIndex1
              {
                OFFSET 7.75947 0.938293 5.60832
                CHANNELS 3 Zrotation Xrotation Yrotation
                JOINT lIndex2
                {
                  OFFSET 2.54057 -0.884171 1.56538
                  CHANNELS 3 Zrotation Xrotation Yrotation
                  End Site
                  {
                    OFFSET 1.62519 -0.234802 1.16502
                  }
                }
              }
              JOINT lMid1
              {
                OFFSET 8.24714 1.18213 3.41376
                CHANNELS 3 Zrotation Xrotation Yrotation
                JOINT lMid2
                {
                  OFFSET 3.10165 -0.590103 1.0647
                  CHANNELS 3 Zrotation Xrotation Yrotation
                  End Site
                  {
                    OFFSET 2.48547 -0.328903 0.83742
                  }
                }
              }
              JOINT lRing1
              {
                OFFSET 8.82822 0.546677 1.51678
                CHANNELS 3 Zrotation Xrotation Yrotation
                JOINT lRing2
                {
                  OFFSET 2.60934 -0.819778 -0.0198488
                  CHANNELS 3 Zrotation Xrotation Yrotation
                  End Site
                  {
                    OFFSET 2.33842 -0.294052 0.168128
                  }
                }
              }
              JOINT lPinky1
              {
                OFFSET 8.27202 -0.0477905 -0.4584
                CHANNELS 3 Zrotation Xrotation Yrotation
                JOINT lPinky2
                {
                  OFFSET 1.82734 -0.647385 -0.700984
                  CHANNELS 3 Zrotation Xrotation Yrotation
                  End Site
                  {
                    OFFSET 1.69225 -0.51767 -0.607171
                  }
                }
              }
            }
          }
        }
      }
    }
  }
  JOINT rButtock
  {
    OFFSET -8.77824 4.35084 1.2192
    CHANNELS 3 Zrotation Xrotation Yrotation
    JOINT rThigh
    {
      OFFSET 0 -1.70687 -2.19456
      CHANNELS 3 Zrotation Xrotation Yrotation
      JOINT rShin
      {
        OFFSET 0 -36.8199 0.73152
        CHANNELS 3 Zrotation Xrotation Yrotation
        JOINT rFoot
        {
          OFFSET 0.73152 -45.1104 -5.12064
          CHANNELS 3 Zrotation Xrotation Yrotation
          End Site
          {
            OFFSET -1.1221 -3.69964 12.103
          }
        }
      }
    }
  }
  JOINT lButtock
  {
    OFFSET 8.77824 4.35084 1.2192
    CHANNELS 3 Zrotation Xrotation Yrotation
    JOINT lThigh
    {
      OFFSET 0 -1.70687 -2.19456
      CHANNELS 3 Zrotation Xrotation Yrotation
      JOINT lShin
      {
        OFFSET 0 -36.8199 0.73152
        CHANNELS 3 Zrotation Xrotation Yrotation
        JOINT lFoot
        {
          OFFSET -0.73152 -45.1104 -5.12064
          CHANNELS 3 Zrotation Xrotation Yrotation
          End Site
          {
            OFFSET 1.1221 -3.69964 12.103
          }
        }
      }
    }
  }
}
MOTION
Frames:	4
Frame Time:	0.03333
-0.007615179754793644 57.94243240356445 0.3305482566356659 -63.649136424064636 -11.382675468921661 -63.881158232688904 -16.623799055814743 23.547520637512207 14.664028286933899 10.960133001208305 -21.980941593647003 -0.3110772371292114 -11.89621388912201 11.299001276493073 -4.036487191915512 12.817213386297226 -21.367669254541397 -4.619256779551506 2.891360968351364 1.6900448128581047 6.962468773126602 -2.840065397322178 1.8924597278237343 1.5043511241674423 -0.8674324303865433 2.134818434715271 -9.923390820622444 32.87369281053543 20.48277497291565 13.832515329122543 -32.85467863082886 -13.02798941731453 51.93488895893097 -6.334643438458443 10.208842232823372 -2.256845198571682 -0.3278665244579315 -0.25102727115154266 -2.583423927426338 -6.127607077360153 1.2932579219341278 -0.6508293002843857 -4.039949253201485 3.835236355662346 3.9503275975584984 12.888566851615906 6.8004244565963745 -1.289079710841179 5.445842184126377 -7.897683307528496 -3.534775972366333 2.7679699659347534 0.9878206998109818 -5.345620438456535 -1.4922570437192917 8.219433724880219 -2.5939683616161346 14.260582476854324 -3.9407122135162354 -1.6750455647706985 -9.270478785037994 -8.003394529223442 -3.0290481448173523 11.933040618896484 -2.7185630053281784 -0.7474243640899658 3.2786474749445915 1.4255629107356071 -3.1344418600201607 -40.48818111419678 16.778204441070557 -23.601701259613037 27.962640523910522 -28.355731666088104 -50.26774048805237 -6.715955659747124 -10.056408271193504 6.402893587946892 0.28962962329387665 0.46463051810860634 -0.7117221504449844 -1.3620354607701302 -0.45462009496986866 -5.1899416744709015 5.981672778725624 -0.6335089355707169 -4.4541185349226 -5.778701305389404 6.613746732473373 -5.556995943188667 6.969384849071503 -6.0104455053806305 -1.0209372639656067 -3.4491001814603806 -0.006561689078807831 -3.2190467789769173 -3.3502530679106712 -2.419028989970684 1.276215836405754 -13.609016239643097 -2.722463272511959 1.850405540317297 1.8678279966115952 0.9778261184692383 -1.255736332386732 -0.6042785570025444 -8.89900155365467 5.148510932922363 -4.435828886926174 0.29763199388980865 -1.8665029853582382 -51.21925950050354 -24.90477740764618 -45.09172081947327 -32.19564914703369 36.17586761713028 24.30802345275879 1.532985046505928 -10.954353511333466 -12.202936559915543 -0.44584013521671295 3.0885395407676697 3.2223740592598915 52.534024715423584 -25.65432608127594 28.77422869205475 21.864029467105865 51.844847202301025 -7.265603989362717 -6.88089944422245 -8.02771881222725 22.591962218284607
-0.019483303651213646 62.621273040771484 0.5336539447307587 -36.13007426261902 -13.736635744571686 -56.252848505973816 -17.178233116865158 20.151125192642212 11.595835983753204 3.0976664274930954 -23.308546543121338 -10.140949487686157 -14.935242533683777 14.041935503482819 -11.993571370840073 21.23384580016136 -29.063099920749664 -9.538202807307243 -10.917011797428131 0.869540898129344 -4.3319569900631905 -2.3232627287507057 -3.236623965203762 -5.348682180047035 -9.862115755677223 -4.3028707802295685 -12.563193440437317 50.684271454811096 35.38463741540909 5.5601247400045395 -30.83508789539337 -31.45185649394989 63.30555081367493 -1.3399625569581985 -4.40434142947197 8.28932136297226 -8.48523661494255 -4.320244118571281 -3.421812728047371 -0.28557244688272476 -2.0193560421466827 -10.913111194968224 -0.9345464967191219 7.04563669860363 5.43269868940115 8.384993076324463 8.588889241218567 -9.679506942629814 -0.3295331820845604 0.07062084507197142 0.7733854651451111 -0.43180614709854126 14.611368477344513 -12.68738642334938 -10.00920407474041 18.957147896289825 -3.2116220891475677 16.706826835870743 9.367781281471252 -2.838287428021431 -4.3161168694496155 -2.0003344863653183 0.6967279314994812 4.121927618980408 -0.4319261759519577 -12.518350929021835 3.429115377366543 2.9763088747859 9.063477963209152 -55.24945557117462 14.577559232711792 -14.369655847549438 18.917935341596603 -29.33103382587433 -59.09399449825287 -9.676387533545494 -1.295117363333702 -8.65845836699009 -3.814450576901436 -0.616766419261694 6.27142108976841 -4.668383784592152 1.0115987341850996 8.423615545034409 7.607778087258339 5.177765116095543 -8.962544426321983 -20.4223769903183 15.001958459615707 9.950621947646141 2.6616175286471844 0.16706557944417 2.0568975806236267 -6.218084022402763 -1.8602363392710686 8.015725314617157 3.668910898268223 3.015567697584629 14.850876331329346 -9.520900547504425 -3.5182103142142296 0.8971618674695492 9.838736280798912 2.4806436896324158 5.258447974920273 -7.749986797571182 -10.418269112706184 -9.956649541854858 8.80993276834488 -4.902634844183922 -6.192959770560265 -25.863755643367767 -23.361005187034607 -26.846535801887512 -65.48135876655579 70.95663249492645 40.070534348487854 1.2763459235429764 -19.87292915582657 -3.999405652284622 1.696247085928917 -1.850619614124298 -1.7081591114401817 47.25286245346069 -38.34694415330887 55.10822117328644 60.11238098144531 55.187920331954956 -24.367547035217285 -1.01461848244071 -7.8610409796237946 9.893761798739433
-0.017079974291846156 81.81600189208984 1.0217257142066956 -81.34887278079987 -19.994631707668304 -69.86546695232391 -25.8959823846817 29.89904522895813 16.872156858444214 15.857482552528381 -29.059811532497406 -1.3547073304653168 -9.79807198047638 14.822485148906708 -9.873499721288681 18.620585650205612 -26.19124263525009 -6.025335118174553 1.967325210571289 -0.44150677509605885 5.540680401027203 -7.1148571372032166 -0.8908645436167717 -5.3132448345422745 -4.072959199547768 3.6950205266475677 -12.047533392906189 46.09371900558472 24.48502242565155 11.121956035494804 -40.64322620630264 -23.733102679252625 64.8179304599762 -10.106937065720558 5.43679878115654 -8.273957669734955 -3.964008539915085 -0.23759342730045319 -1.34779192507267 -6.482310444116592 -0.9321118891239166 -4.829689487814903 -2.0444231294095516 4.01741199195385 4.522528611123562 13.959283232688904 7.262901663780212 -2.2899996489286423 5.416938699781895 -9.23627994954586 -3.1711354851722717 3.5855796933174133 9.184212908148766 -5.523480400443077 -9.200137183070183 11.422444581985474 0.4187370836734772 16.57086029648781 0.57728111743927 3.001074716448784 -10.703250467777252 -5.510458275675774 -2.6585224270820618 14.582518637180328 -4.349925443530083 -4.457317739725113 1.2260132655501366 2.03572791069746 -0.9562896564602852 -46.63077771663666 12.976505756378174 -24.722188711166382 27.55397379398346 -27.388996481895447 -56.46568715572357 -13.639861643314362 -18.953628838062286 8.50033812224865 -1.5663249045610428 7.111632451415062 2.357962802052498 -4.301350302994251 -4.4474368169903755 1.9511447846889496 7.186832204461098 -3.1163225322961807 -8.688996657729149 -14.795699268579483 8.480161875486374 2.0556791871786118 4.702081382274628 -8.630000799894333 -1.5435925126075745 -3.7552475184202194 -3.0729274079203606 -2.326608784496784 -2.9461460933089256 -1.2641596421599388 6.347736641764641 -16.559886038303375 2.086970843374729 1.676598396152258 5.528096482157707 2.27803498506546 2.8929099440574646 -3.66071205586195 -11.859537363052368 -0.24149537086486816 -1.1316370591521263 -0.2093484252691269 -6.094141826033592 -53.95489811897278 -30.078611075878143 -38.98649275302887 -49.6571409702301 55.132752656936646 32.39850461483002 -6.624942943453789 -13.148550689220428 -18.164639621973038 0.015435442328453064 5.8959755301475525 0.6591156497597694 57.63228178024292 -31.964045763015747 40.31734585762024 30.846717953681946 55.897064208984375 -4.593307077884674 -5.046515241265297 -6.535520106554031 25.445671677589417
-0.022076733177527785 83.8667221069336 1.5724527835845947 -80.63678920269012 -19.17074292898178 -68.09222638607025 -26.202269196510315 30.25159478187561 15.288545787334442 15.72120487689972 -28.706215918064117 -2.1452803909778595 -10.346699059009552 13.120467960834503 -8.568229526281357 18.74219700694084 -23.925425112247467 -5.8026473969221115 1.0768559575080872 0.4012084286659956 4.031342379748821 -6.779473721981049 -1.33472990244627 -3.571697250008583 -4.200313165783882 3.680327385663986 -13.312312960624695 41.945146322250366 24.743775129318237 15.254645347595215 -41.053888499736786 -21.615765541791916 65.38771748542786 -8.404201045632362 3.6197584122419357 -8.49732130765915 -4.1529326140880585 -0.08462704718112946 -0.9748334437608719 -5.529208593070507 -0.2705128490924835 -3.8347455114126205 -1.883039977401495 3.4683959931135178 4.368934594094753 16.188172101974487 6.251880526542664 -2.8837280720472336 4.303746856749058 -8.194402679800987 -4.496946036815643 3.8479480147361755 8.134310469031334 -7.012149319052696 -6.450851485133171 10.343499183654785 1.2482155859470367 17.684288173913956 1.9326013326644897 -0.37872321903705597 -12.131178081035614 -6.6693683713674545 -1.9731107354164124 15.827073007822037 -3.2471727579832077 -2.997911721467972 1.6374292597174644 1.6062365099787712 -0.8836554363369942 -42.67196595668793 13.667936325073242 -25.44706106185913 28.455641269683838 -26.635660529136658 -54.07139718532562 -12.872717678546906 -15.652500092983246 6.353734061121941 -1.4160460978746414 5.921214446425438 2.104979529976845 -1.2851633504033089 -4.6151043847203255 1.8958483636379242 7.246967330574989 -4.212198033928871 -7.044437751173973 -13.337012082338333 8.321273177862167 1.3845313992351294 4.758010804653168 -8.23006734251976 -1.6833141446113586 -3.9726244658231735 -1.8296269699931145 -0.7440035417675972 -2.2803091630339622 -2.009027861058712 7.777461335062981 -15.891222059726715 1.8579021468758583 2.974546328186989 5.60381256043911 4.355255663394928 1.889037061482668 -1.33335392922163 -11.60129427909851 1.0153073072433472 -2.382013164460659 1.3430283218622208 -2.8864022344350815 -56.58509373664856 -26.560837626457214 -40.206098556518555 -53.56363892555237 48.2665228843689 35.03283083438873 -4.572162553668022 -13.10504525899887 -18.436830192804337 0.540558323264122 4.642729461193085 1.8576231971383095 58.42971324920654 -28.37492823600769 39.06209886074066 32.781062722206116 51.20945870876312 -5.8176590502262115 -5.245470777153969 -8.211165815591812 22.72171676158905
